<?xml version="1.0" standalone="no"?>
<!DOCTYPE svg PUBLIC "-//W3C//DTD SVG 20010904//EN"
 "http://www.w3.org/TR/2001/REC-SVG-20010904/DTD/svg10.dtd">
<svg version="1.0" xmlns="http://www.w3.org/2000/svg"
 width="700.000000pt" height="700.000000pt" viewBox="0 0 700.000000 700.000000"
 preserveAspectRatio="xMidYMid meet">
<metadata>
Created by potrace 1.14, written by Peter Selinger 2001-2017
</metadata>
<g transform="translate(0.000000,700.000000) scale(0.100000,-0.100000)"
fill="#000000" stroke="none">
<path d="M4656 6271 c-3 -5 -27 -112 -52 -237 -71 -353 -127 -528 -227 -706
-132 -236 -345 -342 -922 -457 -110 -21 -217 -42 -237 -46 -40 -6 -50 -20 -20
-29 9 -3 131 -28 270 -56 278 -56 383 -84 517 -137 251 -99 371 -222 474 -488
64 -163 109 -340 188 -749 5 -22 13 -41 19 -43 11 -4 48 170 108 497 55 298
141 505 257 622 55 54 88 77 181 122 118 58 261 103 413 131 93 17 472 92 513
101 35 7 17 22 -41 33 -28 5 -137 26 -242 46 -302 58 -369 73 -472 106 -180
58 -315 139 -391 234 -88 111 -169 323 -212 550 -12 66 -40 207 -61 313 -22
106 -39 195 -39 197 0 9 -19 5 -24 -4z"/>
<path d="M313 4953 c-151 -340 -243 -675 -289 -1053 -25 -200 -25 -600 0 -800
51 -425 153 -772 336 -1145 175 -357 387 -653 670 -935 485 -484 1094 -810
1776 -950 133 -28 131 -28 139 22 19 111 83 224 149 263 100 58 204 11 271
-122 25 -51 54 -163 55 -210 0 -22 3 -23 99 -23 54 0 126 3 160 6 l61 7 -2
1935 -3 1935 -920 198 c-506 109 -1080 233 -1275 275 -828 178 -1134 245
-1139 249 -2 3 574 5 1282 5 l1286 0 -36 75 c-31 66 -35 83 -31 134 3 37 14
79 34 117 16 32 31 62 32 66 2 5 -589 8 -1313 8 l-1316 0 -26 -57z"/>
<path d="M6040 4054 c-54 -275 -107 -376 -227 -431 -52 -24 -210 -67 -290 -79
-24 -3 -43 -9 -43 -13 0 -4 42 -15 93 -25 325 -65 389 -127 455 -443 14 -68
28 -121 30 -118 3 2 17 66 32 142 36 178 62 245 114 297 53 53 123 80 298 113
76 15 138 30 138 33 0 4 -55 17 -122 29 -320 59 -371 108 -428 418 -12 65 -26
122 -30 127 -5 4 -13 -18 -20 -50z"/>
<path d="M4470 1624 c0 -999 3 -1484 10 -1484 15 0 235 75 315 107 l70 28 3
1418 c1 779 0 1417 -3 1417 -3 0 -24 -12 -46 -26 -105 -66 -169 -69 -273 -15
l-76 39 0 -1484z"/>
</g>
</svg>
