<svg width="295" height="249" viewBox="0 0 295 249" fill="none" xmlns="http://www.w3.org/2000/svg">
<path d="M275.516 162.53C235.795 191.745 181.096 201.223 116.031 210.439C12.9927 225.027 -29.4583 177.379 24.0172 129.147C42.5907 112.395 -27.5962 40.5816 46.8728 14.5531C157.097 -23.9519 358.341 101.62 275.516 162.53Z" fill="#84DDD4"/>
<path d="M282.899 134.202L165.549 95.6429L201.546 24.4946L291.571 30.9211L282.899 134.202Z" fill="#8990DC"/>
<path d="M247.641 90.0045C248.305 84.4192 228.198 77.437 202.731 74.4092C177.264 71.3814 156.08 73.4546 155.416 79.0398C154.752 84.6251 174.859 91.6073 200.326 94.6351C225.794 97.6629 246.977 95.5897 247.641 90.0045Z" stroke="#1D1D1B" stroke-width="6" stroke-miterlimit="10"/>
<path d="M165.706 86.924C159.743 86.2182 173.262 147.828 180.804 146.967C185.51 146.423 179.769 110.801 187.076 109.679C194.544 108.563 190.161 147.498 201.314 146.88C209.3 146.423 212.99 114.458 220.317 116.011C228.821 117.819 218.832 153.528 228.384 152.446C231.416 152.096 236.773 137.542 240.733 122.928C244.692 108.314 247.247 93.6395 244.652 93.0681C233.755 90.6683 227.228 132.44 220.042 130.914C213.77 129.57 218.086 95.9587 207.485 96.5771C197.3 97.1754 195.452 117.705 187.143 119.177C176.145 121.12 175.05 88.0197 165.706 86.924Z" stroke="#1D1D1B" stroke-width="2" stroke-miterlimit="10"/>
<path d="M180.718 86.1766L173.808 84.4826C178.074 85.502 182.555 85.1104 186.58 83.3667L193.484 85.0338C189.465 86.7879 184.985 87.189 180.718 86.1766Z" fill="#1D1D1B"/>
<path d="M186.385 32.7964L193.295 34.4904C200.622 36.2785 206.74 42.2882 209.052 51.0674C212.628 64.7002 205.644 79.9731 193.483 85.0551L186.573 83.3678C198.727 78.2589 205.711 63.0129 202.142 49.3802C199.836 40.5942 193.705 34.6181 186.385 32.7964Z" fill="#1D1D1B"/>
<path d="M173.609 33.9455C177.633 32.1966 182.115 31.8027 186.382 32.8229L193.292 34.5102C189.025 33.4953 184.544 33.8892 180.52 35.6328L173.609 33.9455Z" fill="white"/>
<path d="M186.472 32.5275L193.389 34.2215C189.08 33.1916 184.553 33.5879 180.489 35.3508L173.572 33.6636C177.636 31.9021 182.162 31.5036 186.472 32.5275Z" fill="#F9B233"/>
<path d="M173.813 84.4829C169.205 83.3179 165.14 80.5994 162.304 76.7859L169.215 78.4799C172.052 82.2922 176.116 85.0104 180.723 86.1769L173.813 84.4829Z" fill="white"/>
<path d="M158.048 67.9001C154.472 54.2674 161.456 38.9945 173.61 33.9192L180.527 35.6065C168.373 40.7154 161.389 55.9614 164.959 69.5941C165.779 72.8075 167.225 75.8274 169.214 78.4809L162.303 76.7869C160.308 74.1373 158.861 71.116 158.048 67.9001Z" fill="white"/>
<path d="M180.478 35.6193C192.631 30.5104 205.431 37.4477 209 51.0804C212.57 64.7131 205.592 79.9861 193.431 85.0681C181.271 90.1501 168.485 83.2396 164.909 69.6069C161.333 55.9742 168.317 40.7282 180.478 35.6193Z" fill="#F39200"/>
<path d="M180.656 86.4469L173.739 84.7529C166.345 82.9379 160.14 76.8744 157.821 68.001C154.211 54.2272 161.263 38.8198 173.544 33.6638L180.461 35.3511C168.18 40.5138 161.122 55.9212 164.731 69.695C167.057 78.5684 173.255 84.6319 180.656 86.4469Z" fill="#EFBC00"/>
<path d="M180.46 35.35C192.742 30.194 205.668 37.1986 209.278 50.9725C212.888 64.7463 205.837 80.1537 193.548 85.3097C181.26 90.4656 168.34 83.4611 164.73 69.6939C161.12 55.9267 168.179 40.5126 180.46 35.35ZM193.481 85.0341C205.642 79.9319 212.626 64.6791 209.05 51.0464C205.474 37.4137 192.681 30.4831 180.527 35.5852C168.373 40.6874 161.389 55.9604 164.959 69.5729C168.528 83.1854 181.327 90.143 193.481 85.0341Z" fill="#F39200"/>
<path d="M127.992 138.888C163.747 151.539 256.057 175.914 261.764 198.682C267.613 221.988 205.076 240.629 167.377 233.194C157.153 231.177 155.472 222.055 157.153 216.805C164.265 194.528 205.009 194.487 205.009 194.487L168.655 178.092C166.477 181.365 163.115 186.158 160.864 189.775C152.555 203.186 101.352 193.855 67.4916 156.291C34.3038 119.447 44.5284 60.5869 69.4612 26.0077C89.6279 -1.92999 119.69 -2.89799 125.585 7.56854C130.553 16.3814 125.713 18.1897 124.705 28.6898C122.688 49.791 79.0673 76.6598 76.8489 98.4802C75.6927 109.861 97.0157 124.025 99.1332 125.914C117.949 143.028 90.1455 125.51 127.992 138.888Z" fill="#EDEDED" stroke="#1D1D1B" stroke-width="2" stroke-miterlimit="10"/>
<path d="M92.1198 150.584L41.5483 243.862L125.334 248.568L162.643 188.222C162.643 188.222 152.19 183.658 149.387 180.492C138.302 167.928 157.42 148.373 157.42 148.373L147.007 145.2C147.007 145.2 128.467 172.929 107.93 174.912C82.6347 177.352 97.343 154.786 97.343 154.786L92.1198 150.584Z" fill="#1D1D1B"/>
<path d="M88.563 86.2392C87.0304 87.5164 76.1807 98.7627 78.7284 110.13C79.8712 115.246 80.288 116.63 80.288 116.63C80.288 116.63 73.8884 112.826 71.2264 115.427C68.161 118.452 70.1777 132.092 82.4861 126.505C82.4861 126.505 84.8389 141.261 91.2251 149.502C95.8432 155.465 102.707 157.132 103.809 157.381C115.311 160.002 128.681 152.541 134.059 142.632C138.745 134.041 140.849 123.353 140.849 123.353C145.299 126.996 155.638 119.151 152.707 112.342C150.751 107.791 142.462 112.059 142.462 112.059C143.242 108.268 145.359 103.099 145.823 97.3981C146.495 89.3314 138.845 82.6092 137.676 81.5941C125.69 71.0402 102.337 74.7441 88.563 86.2392Z" fill="#F4BBA0" stroke="#1D1D1B" stroke-width="2" stroke-miterlimit="10"/>
<path d="M122.195 75.9945C127.29 76.2835 122.544 50.3357 90.217 64.0558C71.1594 72.1225 88.5633 86.2392 87.6491 81.7017C86.7349 77.1641 74.8768 70.7444 66.2051 79.8194C47.7727 99.0451 80.6512 96.7998 78.1439 89.6272C75.2802 81.4261 56.3974 105.088 78.5472 109.182C88.9532 111.118 123.653 94.084 123.653 94.084C123.653 94.084 121.986 104.625 139.081 107.67C149.601 109.545 178.998 93.2908 139.673 82.1789C139.673 82.1789 145.118 75.2483 140.775 69.0773C131.633 56.0765 116.03 75.6248 122.195 75.9945Z" fill="#FCEA97" stroke="#1D1D1B" stroke-width="2" stroke-miterlimit="10"/>
<path d="M119.387 117.074C119.158 120.126 120.059 123.084 122.035 124.213C124.899 125.847 130.499 123.911 133.12 118.009" stroke="#1D1D1B" stroke-width="2" stroke-miterlimit="10"/>
<path d="M86.7572 116.093C86.1724 119.098 86.7169 122.143 88.5454 123.487C91.1939 125.45 96.9818 124.159 100.289 118.641" stroke="#1D1D1B" stroke-width="2" stroke-miterlimit="10"/>
<path d="M109.679 115.958C109.679 115.958 95.6299 135.372 103.952 132.858" stroke="#1D1D1B" stroke-width="2" stroke-miterlimit="10"/>
<path d="M97.3442 136.125C98.8111 137.577 100.707 138.517 102.751 138.806C104.795 139.095 106.878 138.717 108.689 137.728C110.501 136.739 111.946 135.192 112.808 133.317C113.671 131.441 113.906 129.338 113.478 127.318" stroke="#1D1D1B" stroke-width="2" stroke-miterlimit="10"/>
<path d="M184.066 48.2849L171.744 48.6681L175.596 60.2169C175.596 60.2169 183.353 57.528 186.566 59.4438C189.605 61.279 190.398 67.8265 187.527 72.1489C184.543 76.6326 177.733 78.5552 173.7 75.6243" stroke="#1D1D1B" stroke-width="2" stroke-miterlimit="10"/>
<path d="M197.463 61.6888C199.496 53.3686 198.703 46.0273 195.691 45.2915C192.68 44.5558 188.591 50.7042 186.558 59.0244C184.525 67.3446 185.318 74.6859 188.33 75.4217C191.341 76.1574 195.43 70.0091 197.463 61.6888Z" stroke="#1D1D1B" stroke-width="2" stroke-miterlimit="10"/>
<path d="M133.556 112.872C133.509 114.889 130.759 112.805 127.311 112.724C123.862 112.643 121.019 114.559 121.066 112.576C121.113 110.593 123.95 109.054 127.398 109.134C130.847 109.215 133.603 110.889 133.556 112.872Z" fill="#FCEA97" stroke="#1D1D1B" stroke-width="2" stroke-miterlimit="10"/>
<path d="M99.2056 112.806C99.2056 114.789 96.4092 112.806 92.9607 112.806C89.5122 112.806 86.7023 114.755 86.709 112.772C86.7157 110.789 89.5256 109.196 92.9741 109.209C96.4226 109.223 99.2191 110.823 99.2056 112.806Z" fill="#FCEA97" stroke="#1D1D1B" stroke-width="2" stroke-miterlimit="10"/>
<path d="M105.247 16.4151C104.366 4.14698 120.036 4.38898 136.277 10.3651C140.344 11.8708 142.737 11.8574 145.688 12.7447C153.533 15.1244 172.032 29.7251 165.707 29.4764C161.539 29.3083 147.2 18.1965 146.414 19.1443C145.379 20.3946 169.901 34.9416 169.101 39.4589C167.999 45.6703 144.397 21.9811 142.932 22.9625C141.702 23.7894 171.085 45.2602 164.443 49.4616C160.551 51.922 137.554 23.1911 139.913 27.1572C139.913 27.1572 161.028 49.1322 157.109 52.8026C152.309 57.3065 136.27 30.5049 136.27 30.5049C120.056 24.5355 106.215 29.9133 105.247 16.4151Z" fill="#F4BBA0" stroke="#1D1D1B" stroke-width="2" stroke-miterlimit="10"/>
<path d="M166.77 222.841C170.494 234.565 157.89 239.728 140.627 240.601C136.298 240.817 134.1 241.771 131.021 242.127C122.874 243.062 102.606 238.316 106.055 234.639C108.912 231.594 127.855 236.541 127.855 236.541C127.855 236.541 100.045 231.264 99.0032 226.794C97.5714 220.657 129.556 231.654 129.556 231.654C129.556 231.654 94.8959 222.243 99.3595 215.763C101.974 211.971 130.685 226.612 130.685 226.612C130.685 226.612 102.633 214.721 104.784 209.807C107.433 203.757 132.715 222.095 132.715 222.095C149.978 221.221 162.643 209.84 166.77 222.841Z" fill="#F4BBA0" stroke="#1D1D1B" stroke-width="2" stroke-miterlimit="10"/>
<path d="M147.483 118.452C153.096 116.106 147.886 110.533 142.986 115.763C142.986 115.763 145.943 118.734 141.446 119.648" stroke="#1D1D1B" stroke-width="2" stroke-miterlimit="10"/>
<path d="M75.052 122.747C69.4389 120.395 74.6486 114.829 79.5424 120.058C79.5424 120.058 76.5914 123.03 81.0885 123.944" stroke="#1D1D1B" stroke-width="2" stroke-miterlimit="10"/>
</svg>
