<svg width="340" height="239" viewBox="0 0 340 239" fill="none" xmlns="http://www.w3.org/2000/svg">
<path d="M338.369 190.467L46.5968 199.007L21.6655 84.8651L273.865 14.4434L338.369 190.467Z" fill="#8990DC"/>
<path d="M140.164 104.716C87.6864 122.79 4.891 155.743 9.72607 196.835C11.2379 209.699 20.9148 225.253 35.7129 230.993C46.6088 235.229 61.509 234.555 71.3494 226.54C83.9478 216.263 87.0123 201.826 88.4287 192.381C90.9416 175.465 93.3183 237 93.3183 237L241.68 235.025L238.343 200.696C238.343 200.696 255.858 227.554 274.307 233.976C298.884 242.557 338.381 221.146 306.198 162.594C298.359 148.327 256.914 92.3972 188.562 95.4208C142.738 97.4638 171.578 93.9022 140.164 104.716Z" fill="#1851CC" stroke="#1D1D1B" stroke-width="2" stroke-miterlimit="10"/>
<path d="M131.272 55.0723C131.272 55.0723 120.696 48.2623 116.535 53.9895C113.266 58.4977 118.033 67.9431 125.776 70.9463C132.757 73.6702 136.42 70.9463 136.42 70.9463C140.166 101.543 189.592 150.834 212.515 69.2506C212.515 69.2506 219.815 70.6126 225.454 66.5811C229.901 63.394 235.478 54.4934 227.674 50.2917C222.321 47.4179 212.467 53.4174 212.467 53.4174C212.467 53.4174 210.424 28.493 200.209 15.7516C191.656 5.05992 175.918 2.19293 164.3 3.78646C160.065 4.36531 142.195 7.47746 136.379 20.4096C130.714 33.0761 137.408 48.882 131.272 55.0723Z" fill="#F4BBA0" stroke="#1D1D1B" stroke-width="2" stroke-miterlimit="10"/>
<path d="M131.358 55.9234C131.358 55.9234 124.548 4.84873 161.206 0.558458C219.976 -6.3196 213.84 52.607 213.84 52.607L168.486 49.4812L168.642 29.1671L166.449 50.4754L131.358 55.9234Z" fill="#1D1D1B"/>
<path d="M161.208 145.093H138.803L139.171 127.966L136.937 145.093H119.129L130.461 72.6624L136.42 70.9463L140.165 84.9135L150.932 100.849L161.208 145.093Z" fill="#1D1D1B"/>
<path d="M245.759 141.79H222.339L216.891 127.04L220.065 141.79H203.687L199.383 99.6703L206.309 87.0174L212.512 69.2502L219.915 69.3047L245.759 141.79Z" fill="#1D1D1B"/>
<path d="M163.481 76.5783C164.177 78.5502 165.491 80.2449 167.227 81.4107C168.963 82.5765 171.028 83.1512 173.117 83.0495C175.206 82.9478 177.206 82.175 178.82 80.8461C180.435 79.5171 181.578 77.7028 182.079 75.6726" stroke="#1D1D1B" stroke-width="2" stroke-miterlimit="10"/>
<path d="M169.617 74.4874L175.943 75.2706L170.42 56.5364" stroke="#1D1D1B" stroke-width="2" stroke-miterlimit="10"/>
<path d="M153.484 70.1014C159.749 70.1014 164.829 65.0219 164.829 58.756C164.829 52.4901 159.749 47.4106 153.484 47.4106C147.218 47.4106 142.138 52.4901 142.138 58.756C142.138 65.0219 147.218 70.1014 153.484 70.1014Z" stroke="#1D1D1B" stroke-width="2" stroke-miterlimit="10"/>
<path d="M188.589 70.1014C194.854 70.1014 199.934 65.0219 199.934 58.756C199.934 52.4901 194.854 47.4106 188.589 47.4106C182.323 47.4106 177.243 52.4901 177.243 58.756C177.243 65.0219 182.323 70.1014 188.589 70.1014Z" stroke="#1D1D1B" stroke-width="2" stroke-miterlimit="10"/>
<path d="M153.485 65.001C155.106 65.001 156.42 62.9674 156.42 60.4587C156.42 57.9501 155.106 55.9165 153.485 55.9165C151.864 55.9165 150.55 57.9501 150.55 60.4587C150.55 62.9674 151.864 65.001 153.485 65.001Z" fill="#1D1D1B"/>
<path d="M160.643 61.1336C160.176 59.5888 159.22 58.2376 157.918 57.2836C156.616 56.3296 155.04 55.8246 153.426 55.8446C151.812 55.8645 150.249 56.4085 148.971 57.3944C147.694 58.3803 146.771 59.7547 146.342 61.3106" stroke="#1D1D1B" stroke-width="2" stroke-miterlimit="10"/>
<path d="M188.586 65.001C190.207 65.001 191.522 62.9674 191.522 60.4587C191.522 57.9501 190.207 55.9165 188.586 55.9165C186.965 55.9165 185.651 57.9501 185.651 60.4587C185.651 62.9674 186.965 65.001 188.586 65.001Z" fill="#1D1D1B"/>
<path d="M195.718 61.1329C195.242 59.6018 194.283 58.2655 192.986 57.323C191.689 56.3805 190.122 55.882 188.519 55.9019C186.915 55.9218 185.361 56.459 184.088 57.4334C182.814 58.4079 181.89 59.7675 181.451 61.31" stroke="#1D1D1B" stroke-width="2" stroke-miterlimit="10"/>
<path d="M242.003 149.424L222.342 173.695L248.091 191.972L195.327 204.094L197.908 235.052L169.62 209.563L107.424 217.925L140.167 172.258V150.057L180.25 158.576L242.003 149.424Z" fill="#FCEA97"/>
<path d="M335.599 230.027C330.736 162.997 308.502 192.981 279.88 208.828C256.787 221.61 232.435 198.899 213.02 185.122" stroke="#1D1D1B" stroke-width="8" stroke-miterlimit="10"/>
<path d="M199.15 176.692C204.286 169.205 205.538 161.139 201.947 158.675C198.355 156.211 191.28 160.283 186.144 167.77C181.008 175.257 179.756 183.324 183.348 185.787C186.939 188.251 194.014 184.179 199.15 176.692Z" stroke="#1D1D1B" stroke-width="2" stroke-miterlimit="10"/>
<path d="M186.15 167.797C191.489 159.686 198.285 154.858 204.387 158.869C210.489 162.88 211.102 172.707 205.749 180.825C200.396 188.942 191.148 192.265 185.054 188.261C178.959 184.257 180.818 175.915 186.15 167.797Z" stroke="#1D1D1B" stroke-width="2" stroke-miterlimit="10"/>
<path d="M191.071 179.205C191.868 177.947 191.711 176.418 190.72 175.79C189.728 175.162 188.279 175.673 187.481 176.931C186.684 178.189 186.842 179.718 187.833 180.346C188.824 180.974 190.274 180.464 191.071 179.205Z" stroke="#1D1D1B" stroke-width="2" stroke-miterlimit="10"/>
<path d="M198.205 170.134C199.009 168.883 198.862 167.355 197.876 166.721C196.891 166.088 195.44 166.588 194.635 167.839C193.831 169.09 193.978 170.618 194.964 171.252C195.95 171.885 197.401 171.385 198.205 170.134Z" stroke="#1D1D1B" stroke-width="1.9972" stroke-miterlimit="10"/>
<path d="M283.577 182.276C281.418 166.504 257.277 164.57 240.954 172.919C233.544 176.719 211.671 190.815 216.663 193.927C220.796 196.515 240.674 180.989 240.674 180.989C240.674 180.989 217.255 198.436 218.433 204.299C220.04 212.362 244.611 186.273 244.611 186.273C244.611 186.273 216.778 211.47 224.065 217.599C228.321 221.188 248.091 191.953 248.091 191.953C248.091 191.953 232.053 210.149 236.425 215.277C241.791 221.59 252.149 196.665 252.149 196.665C268.677 190.897 285.947 199.764 283.577 182.276Z" fill="#F4BBA0" stroke="#1D1D1B" stroke-width="2" stroke-miterlimit="10"/>
<path d="M4.63281 234.005C6.3353 178.02 65.0916 221.542 99.8564 209.564C111.753 205.478 129.67 174.874 150.427 177.039" stroke="#1D1D1B" stroke-width="8" stroke-miterlimit="10"/>
<path d="M161.468 175.956C162.19 186.028 163.709 193.546 158.52 193.921C153.33 194.295 148.529 186.43 147.807 176.358C147.086 166.286 150.708 157.821 155.898 157.447C161.087 157.072 160.74 165.884 161.468 175.956Z" fill="#1D1D1B"/>
<path d="M172.362 167.143L150.13 168.741C149.312 168.8 148.697 169.51 148.756 170.328L148.835 171.435C148.894 172.253 149.605 172.868 150.423 172.809L172.654 171.212C173.472 171.153 174.087 170.443 174.029 169.625L173.949 168.518C173.89 167.7 173.18 167.085 172.362 167.143Z" fill="#1D1D1B"/>
<path d="M173.196 178.759L150.965 180.357C150.147 180.415 149.532 181.126 149.59 181.944L149.67 183.051C149.729 183.869 150.439 184.484 151.257 184.425L173.489 182.828C174.306 182.769 174.922 182.059 174.863 181.241L174.783 180.134C174.725 179.316 174.014 178.7 173.196 178.759Z" fill="#1D1D1B"/>
<path d="M65.9803 193.655C65.4696 171.244 102.604 175.513 105.737 175.65C114.052 176.017 138.513 181.036 134.284 185.122C131.451 187.846 115.829 185.122 109.932 183.944C109.865 183.931 109.797 183.943 109.738 183.977C109.68 184.011 109.636 184.065 109.614 184.129C109.592 184.193 109.595 184.263 109.621 184.325C109.646 184.388 109.694 184.439 109.755 184.469C116.006 187.492 134.223 196.726 134.271 201.67C134.366 209.89 104.92 189.467 104.92 189.467C104.92 189.467 137.376 208.351 131.526 215.869C128.121 220.262 102.7 195.773 102.7 195.773C102.7 195.773 120.351 208.78 117.137 214.712C113.201 221.998 99.7032 201.214 99.7032 201.214C82.3719 198.994 66.4093 211.3 65.9803 193.655Z" fill="#F4BBA0" stroke="#1D1D1B" stroke-width="2" stroke-miterlimit="10"/>
<path d="M209.177 172.17C212.418 174.587 216.109 181.629 213.222 185.51C210.334 189.392 203.3 189.208 200.058 186.791C202.216 185.063 204.135 183.057 205.765 180.825C207.573 178.251 208.742 175.285 209.177 172.17V172.17Z" stroke="#1D1D1B" stroke-width="2" stroke-miterlimit="10"/>
<path d="M149.443 181.643C154.359 181.299 158.212 179.133 158.049 176.805C157.886 174.477 153.769 172.868 148.853 173.212C143.938 173.557 140.085 175.723 140.248 178.051C140.411 180.379 144.528 181.987 149.443 181.643Z" fill="#1D1D1B"/>
<path d="M221.752 62.2842C230.333 58.6885 222.365 50.1693 214.874 58.1982C214.874 58.1982 219.389 62.7473 212.511 64.1433" stroke="#1D1D1B" stroke-width="2" stroke-miterlimit="10"/>
<path d="M124.209 64.6058C115.629 61.017 123.59 52.4977 131.087 60.5198C131.087 60.5198 126.572 65.0621 133.444 66.4649" stroke="#1D1D1B" stroke-width="2" stroke-miterlimit="10"/>
<path d="M163.99 54.4521C168.491 49.4809 174.205 50.4343 178.093 54.4521H163.99Z" fill="#F4BBA0"/>
<path d="M163.99 54.4521C168.491 49.4809 174.205 50.4343 178.093 54.4521" stroke="#1D1D1B" stroke-width="2" stroke-miterlimit="10"/>
</svg>
