<svg width="258" height="260" viewBox="0 0 258 260" fill="none" xmlns="http://www.w3.org/2000/svg">
<path d="M241.373 126.63C230.417 198.492 189.848 246.812 126.286 246.812C62.7242 246.812 -50.6572 206.588 25.2666 118.144C68.5037 67.7739 46.0425 35.5654 102.63 6.61492C165.9 -25.7528 250.291 68.1256 241.373 126.63Z" fill="#EE452C"/>
<path d="M80.3414 123.731C79.0143 124.726 74.9932 123.79 64.3631 132.072C42.6715 148.965 56.4004 171.625 29.9379 199.926C10.947 220.243 11.1925 256.181 11.1925 256.181C38.584 256.44 142.205 258.424 142.205 258.424L144.301 244.821C146.956 243.494 150.167 243.189 154.069 244.821C193.729 261.41 256.21 255.438 256.389 208.545C256.588 156.225 128.761 116.677 128.761 116.677C103.619 121.508 80.3414 123.731 80.3414 123.731Z" fill="#84DDD4" stroke="#1D1D1B" stroke-width="2" stroke-miterlimit="10"/>
<path d="M75.7035 80.1823C69.9505 102.829 66.5067 123.419 86.8711 126.352C129.226 132.456 142.172 100.016 142.172 100.016C142.172 100.016 166.843 98.881 160.001 84.9266C156.471 77.7272 145.489 82.1597 145.489 82.1597C145.489 82.1597 151.76 49.6459 131.031 50.0042C116.359 50.2763 87.8996 46.0959 79.4061 62.6116C76.5595 68.0991 78.4971 69.1807 75.7035 80.1823Z" fill="#F4BBA0" stroke="#1D1D1B" stroke-width="2" stroke-miterlimit="10"/>
<path d="M204.765 184.93C204.765 214.126 152.749 239.858 120.148 239.858C87.5479 239.858 94.5086 219.62 91.224 190.61C86.964 152.993 101.841 160.186 158.714 156.948C192.456 155.03 204.765 155.734 204.765 184.93Z" fill="#8990DC" stroke="#1D1D1B" stroke-width="2" stroke-miterlimit="10"/>
<path d="M122.869 50.9863C121.542 58.5706 113.712 61.8087 86.9372 65.5843C56.4138 69.904 40.6677 51.1787 41.9881 43.5877C43.3086 35.9968 71.5494 48.1596 98.6622 44.165C125.437 40.2236 124.189 43.3754 122.869 50.9863Z" fill="#1D1D1B"/>
<path d="M139.504 68.6034C160.333 68.6896 162.569 66.6525 170.114 70.3817C179.158 74.8473 176.782 84.2232 185.136 87.8595" stroke="#1D1D1B" stroke-width="8" stroke-miterlimit="10"/>
<path d="M142.171 60.3489C162.994 60.4351 167.347 60.893 172.171 62.1338C183.504 65.0534 179.191 69.9703 189.629 74.363" stroke="#1D1D1B" stroke-width="8" stroke-miterlimit="10"/>
<path d="M139.504 76.9441C157.632 75.3649 164.254 76.7583 168.249 80.8325C174.831 87.5476 170.565 93.984 181.898 99.4118" stroke="#1D1D1B" stroke-width="8" stroke-miterlimit="10"/>
<path d="M156.259 58.5373C153.094 76.6521 85.6435 64.8675 88.8087 46.7527C91.9738 28.6379 109.638 16.5946 128.264 19.8459C146.889 23.0973 159.431 40.4225 156.259 58.5373Z" fill="#1D1D1B"/>
<path d="M163.438 234.788C161.965 256.586 126.279 249.174 123.274 248.763C115.238 247.674 97.7201 234.642 102.179 231.053C105.165 228.651 114.316 238.703 119.936 240.342C119.998 240.356 120.063 240.348 120.119 240.32C120.176 240.291 120.221 240.243 120.246 240.185C120.271 240.127 120.275 240.061 120.258 240C120.24 239.939 120.201 239.887 120.148 239.851C114.349 236.368 97.4879 225.811 97.8661 221C98.4965 213.037 125.271 235.425 125.271 235.425C125.271 235.425 97.4746 216.494 103.838 209.72C107.547 205.738 128.011 229.507 128.011 229.507C128.011 229.507 112.026 215.333 115.663 209.852C120.128 203.131 131.395 224.49 131.395 224.49C148.024 228.153 164.593 217.636 163.438 234.788Z" fill="#F4BBA0" stroke="#1D1D1B" stroke-width="2" stroke-miterlimit="10"/>
<path d="M103.652 79.4656C103.426 82.4781 104.316 85.3977 106.266 86.5124C109.093 88.1248 114.621 86.2205 117.208 80.3879" stroke="#1D1D1B" stroke-width="2" stroke-miterlimit="10"/>
<path d="M76.4663 76.7517C75.8823 79.7178 76.4264 82.7236 78.2247 84.0507C80.8391 85.9883 86.5589 84.7142 89.817 79.2599" stroke="#1D1D1B" stroke-width="2" stroke-miterlimit="10"/>
<path d="M82.7569 97.6865C82.3455 100.726 83.4204 103.658 85.9486 104.667C89.618 106.18 96.9967 104.05 100.646 98.0979" stroke="#1D1D1B" stroke-width="2" stroke-miterlimit="10"/>
<path d="M96.1939 77.5281C91.549 83.2877 86.6122 90.4672 88.5896 93.0152C89.3129 93.9508 91.1907 94.5347 96.0944 93.128" stroke="#1D1D1B" stroke-width="2" stroke-miterlimit="10"/>
<path d="M123.804 74.4491C123.804 75.6568 121.98 73.0889 117.209 73.0889C112.438 73.0889 106.545 75.6568 106.545 74.4491C106.545 73.2415 112.444 70.3816 117.209 70.3816C121.973 70.3816 123.804 73.2348 123.804 74.4491Z" fill="#1D1D1B"/>
<path d="M68.4573 167.704L40.2231 256.592" stroke="#1D1D1B" stroke-width="2" stroke-miterlimit="10"/>
<path d="M174.619 189.906C174.619 189.84 174.619 189.773 174.619 189.707C174.307 184.993 172.605 180.478 169.726 176.732C166.848 172.985 162.924 170.177 158.45 168.661C153.976 167.144 149.152 166.989 144.59 168.214C140.027 169.439 135.93 171.989 132.817 175.542C129.704 179.095 127.714 183.491 127.099 188.175C126.484 192.859 127.272 197.62 129.362 201.856C131.453 206.093 134.753 209.614 138.845 211.975C142.936 214.336 147.636 215.431 152.35 215.121C173.007 215.612 186.915 193.011 186.537 187.199C186.271 183.41 180.385 189.004 174.619 189.906ZM141.296 192.792C141.343 193.535 141.094 194.265 140.605 194.825C140.115 195.385 139.423 195.727 138.681 195.778L138.15 195.812C137.409 195.859 136.679 195.61 136.12 195.12C135.562 194.63 135.22 193.939 135.171 193.197L134.786 187.391C134.741 186.649 134.99 185.92 135.479 185.361C135.969 184.801 136.659 184.458 137.4 184.405L137.931 184.372C138.673 184.327 139.403 184.576 139.962 185.065C140.521 185.555 140.865 186.245 140.917 186.986L141.296 192.792ZM152.437 192.056C152.484 192.798 152.236 193.529 151.746 194.088C151.256 194.648 150.564 194.991 149.822 195.042H149.291C148.549 195.089 147.818 194.841 147.259 194.351C146.699 193.861 146.356 193.169 146.305 192.428L145.927 186.622C145.88 185.88 146.128 185.15 146.619 184.592C147.109 184.033 147.8 183.692 148.542 183.642L149.072 183.602C149.814 183.555 150.544 183.804 151.102 184.294C151.661 184.784 152.002 185.475 152.052 186.217L152.437 192.056Z" fill="white" stroke="#1D1D1B" stroke-width="2" stroke-miterlimit="10"/>
<path d="M84.3926 191.986L84.78 197.52C85.0879 201.917 88.9024 205.233 93.3 204.925L112.915 203.552C117.312 203.244 120.628 199.43 120.32 195.032L119.933 189.498C119.625 185.101 115.81 181.785 111.413 182.093L91.7979 183.466C87.4002 183.774 84.0848 187.588 84.3926 191.986Z" fill="#8990DC" stroke="#1D1D1B" stroke-width="2.00489" stroke-miterlimit="10"/>
<path d="M107.001 200.903C111.061 200.903 114.353 197.612 114.353 193.551C114.353 189.491 111.061 186.199 107.001 186.199C102.94 186.199 99.6484 189.491 99.6484 193.551C99.6484 197.612 102.94 200.903 107.001 200.903Z" fill="#8990DC" stroke="#1D1D1B" stroke-width="2" stroke-miterlimit="10"/>
<path d="M151.806 92.0264C160.685 90.1884 154.646 80.5537 145.994 86.8309C145.994 86.8309 149.464 92.0198 142.629 92.0795" stroke="#1D1D1B" stroke-width="2" stroke-miterlimit="10"/>
<path d="M91.6616 74.0377C91.6616 75.2454 89.8302 72.6775 85.0659 72.6775C80.3016 72.6775 74.396 75.2454 74.396 74.0377C74.396 72.8301 80.3016 69.9702 85.0659 69.9702C89.8302 69.9702 91.6616 72.8235 91.6616 74.0377Z" fill="#1D1D1B"/>
</svg>
