<svg width="158" height="42" viewBox="0 0 158 42" fill="none" xmlns="http://www.w3.org/2000/svg">
<path fill-rule="evenodd" clip-rule="evenodd" d="M11.3508 8.67837C11.5394 8.72426 11.7493 8.77906 11.9715 8.84329C12.053 8.86687 12.1363 8.89173 12.2207 8.91787C12.3731 8.96504 12.5295 9.01643 12.6873 9.07219H16.6577V14.0269L16.6606 14.0381C16.688 14.1445 16.7123 14.2436 16.7336 14.3336C16.8085 14.6503 17.0883 14.8829 17.4137 14.8829C17.7554 14.8829 18.0441 14.6279 18.1032 14.2913C18.119 14.2009 18.1373 14.1021 18.158 13.9965C18.198 13.7932 18.2473 13.5646 18.3072 13.3214C18.332 13.2206 18.3587 13.1173 18.3873 13.0122C18.6532 12.035 19.0852 10.9058 19.7567 10.2342C20.3899 9.60109 21.4297 9.18095 22.3655 8.91211C22.5213 8.86735 22.6742 8.82679 22.8219 8.79013C23.1029 8.72038 23.365 8.66477 23.5919 8.62137C23.6772 8.60503 23.7576 8.59043 23.8321 8.57744C24.1582 8.52063 24.4054 8.24093 24.4054 7.90991C24.4054 7.57889 24.1582 7.29919 23.8321 7.24238C23.7576 7.22939 23.6772 7.21479 23.5919 7.19845C23.365 7.15505 23.1029 7.09944 22.8219 7.02968C22.7831 7.02006 22.744 7.01017 22.7045 7H18V7.13525H11.3762L11.3508 7.14145C11.2345 7.16974 11.1263 7.19465 11.0282 7.21629C10.7011 7.28846 10.4595 7.57497 10.4595 7.90991C10.4595 8.24485 10.7011 8.53136 11.0282 8.60353C11.1263 8.62517 11.2345 8.65008 11.3508 8.67837ZM26.1792 7C26.2844 7.2814 26.3423 7.5874 26.3423 7.90991C26.3423 9.23142 25.369 10.2758 24.1646 10.4856C23.7193 10.5632 23.0652 10.7022 22.4331 10.9211C21.7565 11.1554 21.3215 11.4087 21.1264 11.6039C20.9328 11.7974 20.6811 12.2282 20.4475 12.8994C20.2291 13.5269 20.0896 14.1779 20.0109 14.6262C19.798 15.8392 18.7457 16.8198 17.4137 16.8198C17.1495 16.8198 16.896 16.7811 16.6577 16.7094V20.9118L17.5955 20.1919C18.059 19.8361 18.6168 19.5736 19.2341 19.4634C20.5722 19.2244 21.8799 19.1288 23.2137 19.4625C24.5636 19.8003 25.7398 20.5258 26.9253 21.5806C28.1384 22.66 28.3979 24.3324 27.8533 25.6875C27.2626 27.1573 25.9658 27.8826 24.7244 28.0368C23.5254 28.1857 22.2548 27.8391 21.2664 27.0824C20.9244 26.8205 20.6696 26.7429 20.4331 26.7258C20.1583 26.7058 19.7466 26.7579 19.0923 27.0089C18.4042 27.2729 17.6191 27.6833 16.6577 28.2433V36.9153V38.901H18V39H158V7H26.1792ZM16.6577 26.0217V26.0219C19.1977 24.6537 20.8373 24.3143 22.4439 25.5445C23.6293 26.452 25.4994 26.3504 26.0561 24.9652C26.327 24.2912 26.1804 23.5106 25.6377 23.0277C23.5589 21.178 22.0197 20.9334 19.5746 21.3701C19.2833 21.4222 19.0097 21.5481 18.7749 21.7283L14.9099 24.6952V27.027C15.5386 26.649 16.1184 26.3122 16.6577 26.0217ZM8.79222 9.07219C8.62015 8.72377 8.52251 8.33028 8.52251 7.90991C8.52251 7.6389 8.5631 7.37905 8.63805 7.13525H0V9.07219H8.79222ZM39.862 31.0985C38.8711 31.0985 38.0296 30.8862 37.3375 30.4615C36.6611 30.0368 36.1578 29.5099 35.8275 28.8807V30.8626H32.9727V12.8135H35.8275V20.505C36.0005 20.2061 36.2207 19.923 36.4881 19.6556C36.7555 19.3882 37.0622 19.1523 37.4083 18.9478C37.77 18.7433 38.1554 18.5782 38.5643 18.4523C38.9733 18.3265 39.4058 18.2636 39.862 18.2636C40.6327 18.2636 41.3484 18.4052 42.009 18.6883C42.6854 18.9714 43.2673 19.3804 43.7549 19.9151C44.2425 20.4499 44.6279 21.1106 44.911 21.897C45.1941 22.6677 45.3357 23.5486 45.3357 24.5395V24.7282C45.3357 25.7192 45.1941 26.6079 44.911 27.3943C44.6436 28.1808 44.2661 28.8493 43.7785 29.3998C43.3067 29.9503 42.7325 30.375 42.0562 30.6738C41.3956 30.9569 40.6642 31.0985 39.862 31.0985ZM39.1542 28.8335C40.208 28.8335 41.0102 28.4954 41.5607 27.819C42.127 27.1269 42.4101 26.1124 42.4101 24.7754V24.5867C42.4101 23.9103 42.3236 23.3205 42.1506 22.8172C41.9933 22.2981 41.7652 21.8656 41.4664 21.5195C41.1675 21.1735 40.8215 20.9218 40.4282 20.7645C40.035 20.5915 39.6025 20.505 39.1306 20.505C38.1397 20.505 37.3217 20.8432 36.6769 21.5195C36.0477 22.1801 35.7331 23.2025 35.7331 24.5867V24.7754C35.7331 26.1596 36.0398 27.182 36.6533 27.8426C37.2824 28.5032 38.1161 28.8335 39.1542 28.8335ZM47.5233 18.5231H50.3781V20.8353C50.7713 20.0488 51.2747 19.4433 51.8881 19.0186C52.5172 18.5782 53.3509 18.3501 54.389 18.3344V21.0005C53.7598 21.0005 53.1936 21.0634 52.6903 21.1892C52.2027 21.2993 51.7858 21.4881 51.4398 21.7554C51.0938 22.0228 50.8264 22.3767 50.6376 22.8172C50.4646 23.2418 50.3781 23.7845 50.3781 24.4451V30.8626H47.5233V18.5231ZM59.1927 30.6738C59.9634 30.9569 60.8049 31.0985 61.7172 31.0985C63.3058 31.0985 64.5956 30.7603 65.5866 30.084C66.5775 29.3919 67.1752 28.3931 67.3797 27.0876H64.6192C64.5091 27.6853 64.226 28.1493 63.7699 28.4796C63.3137 28.8099 62.6531 28.9751 61.788 28.9751C60.7184 28.9751 59.8926 28.6605 59.3107 28.0313C58.7444 27.4022 58.4377 26.4978 58.3905 25.3181H67.4269V24.4923C67.4269 23.3913 67.2617 22.4475 66.9314 21.6611C66.6168 20.8746 66.1921 20.2297 65.6573 19.7264C65.1226 19.2231 64.5013 18.8534 63.7934 18.6175C63.1014 18.3816 62.37 18.2636 61.5992 18.2636C60.7184 18.2636 59.9005 18.4209 59.1455 18.7355C58.4062 19.0343 57.7613 19.4669 57.2108 20.0331C56.6603 20.5836 56.2278 21.2521 55.9132 22.0386C55.6143 22.8093 55.4649 23.6744 55.4649 24.6339V24.8226C55.4649 25.7978 55.6143 26.6708 55.9132 27.4415C56.2278 28.2122 56.6603 28.8728 57.2108 29.4234C57.7771 29.9582 58.4377 30.375 59.1927 30.6738ZM63.6991 21.0712C64.2181 21.5588 64.517 22.3374 64.5956 23.407H58.4377C58.5793 22.4475 58.9253 21.7004 59.4758 21.1656C60.0263 20.6151 60.7341 20.3398 61.5992 20.3398C62.4958 20.3398 63.1957 20.5836 63.6991 21.0712ZM72.9446 31.0985C72.3784 31.0985 71.8436 31.0277 71.3403 30.8862C70.8369 30.7446 70.3965 30.5323 70.019 30.2491C69.6572 29.9503 69.3663 29.5728 69.1461 29.1166C68.9258 28.6448 68.8158 28.0864 68.8158 27.4415C68.8158 26.718 68.9809 26.1124 69.3112 25.6248C69.6415 25.1215 70.0898 24.7204 70.656 24.4215C71.2223 24.1069 71.8908 23.8789 72.6615 23.7373C73.4322 23.5957 74.258 23.525 75.1388 23.525H76.6724V22.8879C76.6724 22.0543 76.5073 21.433 76.1769 21.024C75.8624 20.6151 75.2804 20.4106 74.431 20.4106C73.676 20.4106 73.1098 20.5836 72.7323 20.9297C72.3705 21.26 72.1503 21.7319 72.0717 22.3453H69.3112C69.3741 21.6218 69.555 21.0083 69.8539 20.505C70.1527 19.9859 70.5381 19.5612 71.0099 19.2309C71.4818 18.9006 72.0245 18.6568 72.6379 18.4995C73.2513 18.3422 73.9041 18.2636 74.5962 18.2636C75.2883 18.2636 75.9331 18.3422 76.5309 18.4995C77.1286 18.6411 77.6476 18.8928 78.088 19.2545C78.5442 19.6006 78.8981 20.0646 79.1497 20.6465C79.4014 21.2128 79.5272 21.9206 79.5272 22.77V30.8626H76.7196V29.3526C76.3106 29.8874 75.8152 30.3121 75.2332 30.6266C74.6512 30.9412 73.8884 31.0985 72.9446 31.0985ZM73.6288 29.0459C74.5097 29.0459 75.2332 28.8335 75.7994 28.4088C76.3814 27.9684 76.6724 27.3471 76.6724 26.5449V25.3181H75.2096C74.1243 25.3181 73.2592 25.4675 72.6143 25.7664C71.9694 26.0495 71.647 26.5685 71.647 27.3235C71.647 27.8426 71.7964 28.2594 72.0953 28.574C72.4098 28.8886 72.921 29.0459 73.6288 29.0459ZM85.2745 12.8135H82.4197V30.8626H85.2745V24.799L89.8988 30.8626H93.2019L88.0113 24.1856L92.8008 18.5231H89.6865L85.2745 23.9497V12.8135ZM94.7814 18.5231H97.6362V20.8353C98.0295 20.0488 98.5328 19.4433 99.1462 19.0186C99.7754 18.5782 100.609 18.3501 101.647 18.3344V21.0005C101.018 21.0005 100.452 21.0634 99.9484 21.1892C99.4608 21.2993 99.044 21.4881 98.698 21.7554C98.3519 22.0228 98.0845 22.3767 97.8958 22.8172C97.7227 23.2418 97.6362 23.7845 97.6362 24.4451V30.8626H94.7814V18.5231ZM111.571 27.7954C110.973 28.5189 110.139 28.8807 109.07 28.8807C107.984 28.8807 107.143 28.5189 106.545 27.7954C105.948 27.0561 105.649 26.0495 105.649 24.7754V24.5867C105.649 23.3126 105.948 22.3138 106.545 21.5903C107.159 20.8668 108 20.505 109.07 20.505C110.139 20.505 110.973 20.8746 111.571 21.6139C112.168 22.3374 112.467 23.3362 112.467 24.6103V24.7754C112.467 26.0495 112.168 27.0561 111.571 27.7954ZM106.522 30.6502C107.292 30.9491 108.134 31.0985 109.046 31.0985C109.958 31.0985 110.8 30.9491 111.571 30.6502C112.341 30.3514 113.01 29.9267 113.576 29.3762C114.142 28.8099 114.583 28.1414 114.897 27.3707C115.228 26.5843 115.393 25.7113 115.393 24.7518V24.5631C115.393 23.6193 115.228 22.7621 114.897 21.9914C114.583 21.2207 114.142 20.56 113.576 20.0095C113.01 19.4433 112.341 19.0107 111.571 18.7119C110.8 18.413 109.966 18.2636 109.07 18.2636C108.157 18.2636 107.316 18.4209 106.545 18.7355C105.774 19.0343 105.106 19.4669 104.54 20.0331C103.974 20.5836 103.525 21.2521 103.195 22.0386C102.88 22.8093 102.723 23.6744 102.723 24.6339V24.8226C102.723 25.7664 102.88 26.6236 103.195 27.3943C103.51 28.165 103.95 28.8257 104.516 29.3762C105.082 29.9267 105.751 30.3514 106.522 30.6502ZM123.113 28.8807C124.183 28.8807 125.017 28.5189 125.614 27.7954C126.212 27.0561 126.511 26.0495 126.511 24.7754V24.6103C126.511 23.3362 126.212 22.3374 125.614 21.6139C125.017 20.8746 124.183 20.505 123.113 20.505C122.044 20.505 121.202 20.8668 120.589 21.5903C119.991 22.3138 119.692 23.3126 119.692 24.5867V24.7754C119.692 26.0495 119.991 27.0561 120.589 27.7954C121.187 28.5189 122.028 28.8807 123.113 28.8807ZM123.09 31.0985C122.178 31.0985 121.336 30.9491 120.565 30.6502C119.795 30.3514 119.126 29.9267 118.56 29.3762C117.994 28.8257 117.553 28.165 117.239 27.3943C116.924 26.6236 116.767 25.7664 116.767 24.8226V24.6339C116.767 23.6744 116.924 22.8093 117.239 22.0386C117.569 21.2521 118.017 20.5836 118.583 20.0331C119.15 19.4669 119.818 19.0343 120.589 18.7355C121.36 18.4209 122.201 18.2636 123.113 18.2636C124.01 18.2636 124.844 18.413 125.614 18.7119C126.385 19.0107 127.054 19.4433 127.62 20.0095C128.186 20.56 128.626 21.2207 128.941 21.9914C129.271 22.7621 129.437 23.6193 129.437 24.5631V24.7518C129.437 25.7113 129.271 26.5843 128.941 27.3707C128.626 28.1414 128.186 28.8099 127.62 29.3762C127.054 29.9267 126.385 30.3514 125.614 30.6502C124.844 30.9491 124.002 31.0985 123.09 31.0985ZM134.491 18.5231H131.636V30.8626H134.491V23.4778C134.491 23.0059 134.562 22.597 134.703 22.2509C134.861 21.8891 135.065 21.5903 135.317 21.3544C135.569 21.1184 135.852 20.9454 136.166 20.8353C136.497 20.7095 136.843 20.6465 137.204 20.6465C137.912 20.6465 138.455 20.851 138.832 21.26C139.21 21.6689 139.399 22.3296 139.399 23.2418V30.8626H142.253V23.4778C142.253 23.0059 142.324 22.597 142.466 22.2509C142.623 21.8891 142.827 21.5903 143.079 21.3544C143.331 21.1184 143.614 20.9454 143.929 20.8353C144.259 20.7095 144.605 20.6465 144.967 20.6465C145.674 20.6465 146.217 20.851 146.595 21.26C146.972 21.6689 147.161 22.3296 147.161 23.2418V30.8626H150.016V23.0531C150.016 22.2037 149.906 21.4802 149.685 20.8825C149.481 20.2691 149.19 19.7736 148.812 19.3961C148.435 19.0029 147.994 18.7197 147.491 18.5467C147.004 18.358 146.477 18.2636 145.91 18.2636C145.14 18.2636 144.369 18.4445 143.598 18.8062C142.827 19.1523 142.206 19.7107 141.734 20.4814C141.42 19.7107 140.956 19.1523 140.342 18.8062C139.745 18.4445 139.045 18.2636 138.242 18.2636C137.33 18.2636 136.552 18.4759 135.907 18.9006C135.262 19.3253 134.79 19.8286 134.491 20.4106V18.5231ZM26.1094 13.1292C26.0308 13.4609 25.8303 14.1583 25.4707 14.4957C25.1455 14.8008 24.5212 14.97 24.2076 15.0392C24.0986 15.0633 24.018 15.1588 24.018 15.2704C24.018 15.3821 24.0986 15.4776 24.2076 15.5016C24.5212 15.5708 25.1455 15.7401 25.4707 16.0452C25.8303 16.3826 26.0308 17.0799 26.1094 17.4117C26.1344 17.5172 26.2276 17.5948 26.3361 17.5948C26.45 17.5948 26.5462 17.5097 26.5659 17.3976C26.6249 17.0614 26.7809 16.3814 27.1171 16.0452C27.4553 15.707 28.1416 15.5511 28.4755 15.4929C28.5842 15.474 28.6666 15.3808 28.6666 15.2704C28.6666 15.1601 28.5842 15.0669 28.4755 15.0479C28.1416 14.9897 27.4553 14.8339 27.1171 14.4957C26.7809 14.1595 26.6249 13.4794 26.5659 13.1433C26.5462 13.0311 26.45 12.9461 26.3361 12.9461C26.2276 12.9461 26.1344 13.0236 26.1094 13.1292Z" fill="#171717"/>
<path d="M0 7.13525H1.93694V38.901L0 38.3637V7.13525Z" fill="#171717"/>
<path d="M14.8176 5.58536C15.8965 4.57315 16.498 2.48118 16.7336 1.48595C16.8085 1.16928 17.0883 0.936707 17.4137 0.936707V0.936707C17.7554 0.936707 18.0441 1.19173 18.1032 1.52826C18.2802 2.53662 18.7482 4.57686 19.7567 5.58536C20.7714 6.59998 22.8303 7.0676 23.8321 7.24215C24.1582 7.29896 24.4054 7.57866 24.4054 7.90968V7.90968C24.4054 8.2407 24.1582 8.5204 23.8321 8.57721C22.8303 8.75176 20.7714 9.21938 19.7567 10.234C18.7482 11.2425 18.2802 13.2827 18.1032 14.2911C18.0441 14.6276 17.7554 14.8827 17.4137 14.8827V14.8827C17.0883 14.8827 16.8085 14.6501 16.7336 14.3334C16.498 13.3382 15.8965 11.2462 14.8176 10.234C13.8419 9.31867 11.969 8.81087 11.0282 8.6033C10.7011 8.53113 10.4594 8.24462 10.4594 7.90968V7.90968C10.4594 7.57474 10.7011 7.28823 11.0282 7.21606C11.969 7.00849 13.8419 6.50069 14.8176 5.58536Z" fill="#171717"/>
<path fill-rule="evenodd" clip-rule="evenodd" d="M13.5585 12.1815L1.93689 9.07196V38.9008L13.5585 41.9999V12.1815ZM10.4446 28.2526C11.0178 28.2526 11.4825 27.5889 11.4825 26.77C11.4825 25.9512 11.0178 25.2874 10.4446 25.2874C9.87129 25.2874 9.40656 25.9512 9.40656 26.77C9.40656 27.5889 9.87129 28.2526 10.4446 28.2526Z" fill="#171717"/>
</svg>
