<svg width="24" height="24" viewBox="0 0 24 24" fill="none" xmlns="http://www.w3.org/2000/svg">
<path d="M12 24C18.6274 24 24 18.6274 24 12C24 5.37258 18.6274 0 12 0C5.37258 0 0 5.37258 0 12C0 18.6274 5.37258 24 12 24Z" fill="url(#paint0_linear_35_45)"/>
<path d="M20.5908 12.1459H18.4753C18.4753 7.83475 14.9683 4.34009 10.6418 4.34009C6.36892 4.34009 2.895 7.7492 2.80998 11.9865C2.72202 16.3665 6.84587 20.1699 11.242 20.1699H11.795C15.6707 20.1699 20.8654 17.1467 21.677 13.4631C21.8269 12.7841 21.2886 12.1459 20.5908 12.1459ZM7.49815 12.3379C7.49815 12.9144 7.02494 13.3859 6.44638 13.3859C5.86781 13.3859 5.39463 12.9142 5.39463 12.3379V10.6425C5.39463 10.066 5.86781 9.59444 6.44638 9.59444C7.02494 9.59444 7.49815 10.066 7.49815 10.6425V12.3379ZM11.1502 12.3379C11.1502 12.9144 10.6771 13.3859 10.0986 13.3859C9.51994 13.3859 9.04679 12.9142 9.04679 12.3379V10.6425C9.04679 10.066 9.52015 9.59444 10.0986 9.59444C10.6771 9.59444 11.1502 10.066 11.1502 10.6425V12.3379Z" fill="url(#paint1_linear_35_45)"/>
<defs>
<linearGradient id="paint0_linear_35_45" x1="12" y1="0" x2="12" y2="24" gradientUnits="userSpaceOnUse">
<stop stop-color="#534BB1"/>
<stop offset="1" stop-color="#551BF9"/>
</linearGradient>
<linearGradient id="paint1_linear_35_45" x1="12.2554" y1="4.34009" x2="12.2554" y2="20.1699" gradientUnits="userSpaceOnUse">
<stop stop-color="white"/>
<stop offset="1" stop-color="white" stop-opacity="0.82"/>
</linearGradient>
</defs>
</svg>
