<svg width="78" height="73" viewBox="0 0 78 73" fill="none" xmlns="http://www.w3.org/2000/svg">
<path d="M27.0001 2.99994C13.1656 0.540478 2.1963 4.77349 2.00009 20.6666C1.91369 27.6651 1.09396 35.4275 3.72232 42.0555C7.5691 51.7561 16.6157 61.0582 25.5001 66.3888C46.2477 78.8374 64.6962 61.0193 73.389 42.4999C78.3851 31.8561 75.733 20.4596 66.5556 13.2222C60.5179 8.46069 53.4895 5.63877 45.889 4.66661C34.7311 3.23944 27.1592 7.25712 17.0001 10.9999" stroke="#A8A8A8" stroke-width="3" stroke-linecap="round"/>
<path d="M26.3336 28.2589C24.4853 22.483 23.9314 19.5082 30.2195 17.7116C34.8868 16.378 36.86 17.4733 41.0046 18.9804C49.466 22.0573 37.7532 40.0199 37.7532 46.102" stroke="#A8A8A8" stroke-width="3" stroke-linecap="round"/>
<path d="M38.4671 57.5216C37.7241 59.5029 36.7351 61.8499 39.1808 63.0728C40.8447 63.9047 41.322 62.8311 41.322 61.4471C41.322 58.5817 40.9491 56.8079 37.7533 56.8079" stroke="#A8A8A8" stroke-width="3" stroke-linecap="round"/>
</svg>
