<svg width="84" height="91" viewBox="0 0 84 91" fill="none" xmlns="http://www.w3.org/2000/svg">
<path d="M65.4204 35.2587C53.5782 35.2587 41.7348 35.2089 29.8927 35.2587C21.3564 35.2945 10.6501 34.7136 5.26916 42.8718C1.79582 48.1378 1.75229 55.22 1.93844 61.27C2.29253 72.778 11.1448 79.7469 20.535 85.1402C44.1109 98.6812 73.3135 77.6806 80.6069 54.45C83.5219 45.1651 83.2072 38.794 75.135 32.9986C66.6001 26.871 58.7596 23.0274 48.291 22.4116" stroke="#A8A8A8" stroke-width="3" stroke-linecap="round"/>
<path d="M32.5889 1.71362C32.5889 10.1588 32.5889 19.2571 32.5889 27.4077C32.5889 30.5924 34.0163 33.5558 34.0163 36.6862" stroke="#A8A8A8" stroke-width="3" stroke-linecap="round"/>
<path d="M19.0278 20.2705C28.9528 19.2554 38.4923 17.0035 48.2906 15.2744" stroke="#A8A8A8" stroke-width="3" stroke-linecap="round"/>
<path d="M31.8751 54.5293C31.8751 57.7981 30.3408 65.8262 33.6595 68.4073C36.5529 70.6578 53.5279 49.4128 57.5693 47.3921" stroke="#A8A8A8" stroke-width="3" stroke-linecap="round"/>
</svg>
